<svg width="18" height="17" viewBox="0 0 18 17" fill="none" xmlns="http://www.w3.org/2000/svg">
<path d="M7.60526 1.4441C7.94404 0.401446 9.41912 0.401447 9.75789 1.4441L10.9683 5.16944C11.1198 5.63573 11.5544 5.95143 12.0446 5.95143H15.9617C17.058 5.95143 17.5138 7.35431 16.6269 7.9987L13.4579 10.3011C13.0613 10.5893 12.8953 11.1001 13.0468 11.5664L14.2573 15.2917C14.596 16.3344 13.4027 17.2014 12.5157 16.557L9.34678 14.2546C8.95013 13.9664 8.41303 13.9664 8.01638 14.2546L4.84741 16.557C3.96048 17.2014 2.76712 16.3344 3.1059 15.2917L4.31633 11.5664C4.46784 11.1001 4.30187 10.5893 3.90522 10.3011L0.736253 7.9987C-0.15068 7.35431 0.305143 5.95143 1.40145 5.95143H5.31851C5.80879 5.95143 6.24332 5.63573 6.39482 5.16944L7.60526 1.4441Z" fill="#F59E0B"/>
</svg>
