<svg width="16" height="16" viewBox="0 0 16 16" fill="none" xmlns="http://www.w3.org/2000/svg">
<path d="M7.23875 3.14068C7.47823 2.40363 8.52096 2.40363 8.76044 3.14068L9.6161 5.77411C9.7232 6.10373 10.0304 6.3269 10.3769 6.3269H13.1459C13.9209 6.3269 14.2431 7.31859 13.6161 7.77411L11.376 9.40167C11.0956 9.60538 10.9783 9.96648 11.0854 10.2961L11.941 12.9295C12.1805 13.6666 11.3369 14.2795 10.71 13.824L8.46982 12.1964C8.18944 11.9927 7.80976 11.9927 7.52937 12.1964L5.28923 13.824C4.66226 14.2795 3.81868 13.6666 4.05816 12.9295L4.91382 10.2961C5.02091 9.96648 4.90359 9.60538 4.6232 9.40167L2.38306 7.77411C1.75609 7.31859 2.07831 6.3269 2.85329 6.3269H5.62225C5.96883 6.3269 6.276 6.10373 6.3831 5.77411L7.23875 3.14068Z" fill="#FECE23"/>
</svg>
