<svg width="12" height="12" viewBox="0 0 12 12" fill="none" xmlns="http://www.w3.org/2000/svg">
<path fill-rule="evenodd" clip-rule="evenodd" d="M11.3954 5.50542C11.6687 5.77878 11.6687 6.222 11.3954 6.49537L6.49537 11.3954C6.222 11.6687 5.77878 11.6687 5.50542 11.3954L0.605416 6.49537C0.468711 6.35866 0.400369 6.17948 0.400391 6.00031V2.50039C0.400391 1.34059 1.34059 0.400391 2.50039 0.400391H6.00058C6.17966 0.400439 6.35873 0.468781 6.49537 0.605416L11.3954 5.50542ZM2.50039 3.20039C2.88699 3.20039 3.20039 2.88699 3.20039 2.50039C3.20039 2.11379 2.88699 1.80039 2.50039 1.80039C2.11379 1.80039 1.80039 2.11379 1.80039 2.50039C1.80039 2.88699 2.11379 3.20039 2.50039 3.20039Z" fill="#A1A1AA"/>
</svg>
